<svg width="18" height="10" viewBox="0 0 18 10" fill="none" xmlns="http://www.w3.org/2000/svg">
<path d="M1.04469 9.38375C1.2791 9.61809 1.59699 9.74973 1.92844 9.74973C2.2599 9.74973 2.57778 9.61809 2.81219 9.38375L8.99969 3.19625L15.1872 9.38375C15.4229 9.61145 15.7387 9.73744 16.0664 9.73459C16.3942 9.73174 16.7077 9.60028 16.9395 9.36852C17.1712 9.13676 17.3027 8.82325 17.3055 8.4955C17.3084 8.16775 17.1824 7.852 16.9547 7.61625L9.88344 0.544999C9.64903 0.31066 9.33115 0.179016 8.99969 0.179016C8.66824 0.179016 8.35035 0.31066 8.11594 0.544999L1.04469 7.61625C0.810355 7.85066 0.678711 8.16854 0.678711 8.5C0.678711 8.83145 0.810355 9.14934 1.04469 9.38375Z" fill="white"/>
</svg>
