<svg width="15" height="8" viewBox="0 0 15 8" fill="none" xmlns="http://www.w3.org/2000/svg">
<path d="M13.8644 0.293013C13.6769 0.105542 13.4226 0.000226433 13.1574 0.00022641C12.8923 0.000226387 12.638 0.105542 12.4504 0.293013L7.50044 5.24301L2.55044 0.293012C2.36184 0.110854 2.10923 0.0100597 1.84704 0.012338C1.58484 0.0146163 1.33403 0.119785 1.14862 0.305193C0.963212 0.490601 0.858043 0.741414 0.855765 1.00361C0.853487 1.26581 0.954281 1.51841 1.13644 1.70701L6.79344 7.36401C6.98097 7.55148 7.23528 7.6568 7.50044 7.6568C7.7656 7.6568 8.01991 7.55148 8.20744 7.36401L13.8644 1.70701C14.0519 1.51948 14.1572 1.26518 14.1572 1.00001C14.1572 0.734848 14.0519 0.480541 13.8644 0.293013Z" fill="white"/>
</svg>
