<svg width="24" height="18" viewBox="0 0 24 18" fill="none" xmlns="http://www.w3.org/2000/svg">
<path d="M1.99967 0.666656H10.333C10.775 0.666656 11.199 0.842251 11.5115 1.15481C11.8241 1.46737 11.9997 1.8913 11.9997 2.33332C11.9997 2.77535 11.8241 3.19927 11.5115 3.51183C11.199 3.8244 10.775 3.99999 10.333 3.99999H1.99967C1.55765 3.99999 1.13372 3.8244 0.821163 3.51183C0.508603 3.19927 0.333008 2.77535 0.333008 2.33332C0.333008 1.8913 0.508603 1.46737 0.821163 1.15481C1.13372 0.842251 1.55765 0.666656 1.99967 0.666656ZM13.6663 14H21.9997C22.4417 14 22.8656 14.1756 23.1782 14.4881C23.4907 14.8007 23.6663 15.2246 23.6663 15.6667C23.6663 16.1087 23.4907 16.5326 23.1782 16.8452C22.8656 17.1577 22.4417 17.3333 21.9997 17.3333H13.6663C13.2243 17.3333 12.8004 17.1577 12.4878 16.8452C12.1753 16.5326 11.9997 16.1087 11.9997 15.6667C11.9997 15.2246 12.1753 14.8007 12.4878 14.4881C12.8004 14.1756 13.2243 14 13.6663 14ZM1.99967 7.33332H21.9997C22.4417 7.33332 22.8656 7.50892 23.1782 7.82148C23.4907 8.13404 23.6663 8.55796 23.6663 8.99999C23.6663 9.44202 23.4907 9.86594 23.1782 10.1785C22.8656 10.4911 22.4417 10.6667 21.9997 10.6667H1.99967C1.55765 10.6667 1.13372 10.4911 0.821163 10.1785C0.508603 9.86594 0.333008 9.44202 0.333008 8.99999C0.333008 8.55796 0.508603 8.13404 0.821163 7.82148C1.13372 7.50892 1.55765 7.33332 1.99967 7.33332Z" fill="white"/>
</svg>
