<svg width="40" height="40" viewBox="0 0 40 40" fill="none" xmlns="http://www.w3.org/2000/svg">
<path d="M26.0526 20.1737C26.0526 23.4037 23.3489 26.0237 20.0139 26.0237C16.6814 26.0237 13.9764 23.4025 13.9764 20.1737C13.9764 19.5937 14.0651 19.035 14.2276 18.5062L12.7139 18.1775V26.6787C12.7139 27.105 12.8964 27.2862 13.3214 27.2862H26.6801C27.1051 27.2862 27.2876 27.105 27.2876 26.6787V18.1775L25.8026 18.5062C25.9639 19.0362 26.0526 19.5937 26.0526 20.1737Z" fill="black"/>
<path d="M20.0136 23.7451C22.1682 23.7451 23.9148 22.0522 23.9148 19.9639C23.9148 17.8755 22.1682 16.1826 20.0136 16.1826C17.859 16.1826 16.1123 17.8755 16.1123 19.9639C16.1123 22.0522 17.859 23.7451 20.0136 23.7451Z" fill="black"/>
<path d="M20 0C8.955 0 0 8.95375 0 20C0 31.0462 8.955 40 20 40C31.045 40 40 31.045 40 20C40 8.955 31.045 0 20 0ZM29.7163 27.2863C29.7163 28.6575 28.6588 29.715 27.2875 29.715H12.7137C11.3425 29.715 10.285 28.6575 10.285 27.2863V12.7125C10.285 11.3413 11.3425 10.2838 12.7137 10.2838H27.2875C28.6588 10.2838 29.7163 11.3413 29.7163 12.7125V27.2863Z" fill="black"/>
<path d="M26.6801 12.7124H24.2501C23.9138 12.7124 23.6426 12.9837 23.6426 13.3199V15.7487C23.6426 16.0849 23.9138 16.3562 24.2501 16.3562H26.6788C27.0151 16.3562 27.2863 16.0849 27.2863 15.7487V13.3199C27.2863 12.9849 27.0151 12.7124 26.6801 12.7124Z" fill="black"/>
</svg>
