<svg width="39" height="40" viewBox="0 0 39 40" fill="none" xmlns="http://www.w3.org/2000/svg">
<path d="M19.375 0.625C8.67445 0.625 0 9.29945 0 20C0 30.7005 8.67445 39.375 19.375 39.375C30.0755 39.375 38.75 30.7005 38.75 20C38.75 9.29945 30.0755 0.625 19.375 0.625ZM28.3556 13.8016C28.0641 16.8652 26.8024 24.2998 26.1603 27.7312C25.8888 29.1831 25.3539 29.67 24.8363 29.7176C23.7113 29.8212 22.8567 28.9741 21.767 28.2597C20.0617 27.1419 19.0984 26.446 17.443 25.3552C15.5302 24.0947 16.7702 23.4021 17.8604 22.2693C18.1457 21.973 23.1031 17.4638 23.1991 17.0548C23.211 17.0036 23.2225 16.8126 23.1089 16.7123C22.9953 16.612 22.8284 16.6459 22.7077 16.6732C22.5367 16.7121 19.8126 18.5126 14.5352 22.0749C13.7621 22.6059 13.0617 22.8646 12.4341 22.851C11.7423 22.8361 10.4116 22.4599 9.42234 22.1383C8.20898 21.7439 7.24461 21.5354 7.32859 20.8655C7.37234 20.5166 7.85281 20.1598 8.77 19.7952C14.4182 17.3344 18.1846 15.712 20.0691 14.928C25.4497 12.69 26.5677 12.3012 27.2965 12.2883C27.4568 12.2856 27.8152 12.3253 28.0473 12.5137C28.2017 12.6479 28.3001 12.8351 28.323 13.0384C28.3624 13.2907 28.3733 13.5467 28.3556 13.8016Z" fill="black"/>
</svg>
