<svg width="40" height="40" viewBox="0 0 40 40" fill="none" xmlns="http://www.w3.org/2000/svg">
<path d="M12.543 22.0261H13.8305V28.5324H15.0755V22.0261H16.363V20.9211H12.543V22.0261Z" fill="black"/>
<path d="M18.896 27.1813C18.791 27.3026 18.6785 27.4026 18.5522 27.4813C18.4285 27.5613 18.3247 27.6001 18.2435 27.6001C18.141 27.6001 18.0647 27.5701 18.016 27.5113C17.971 27.4513 17.9485 27.3563 17.9485 27.2226V22.9151H16.8447V27.6101C16.8447 27.9451 16.911 28.1938 17.0385 28.3613C17.1697 28.5301 17.3597 28.6113 17.616 28.6113C17.8222 28.6113 18.036 28.5526 18.2585 28.4326C18.4797 28.3151 18.691 28.1401 18.896 27.9126V28.5288H19.9997V22.9126H18.896V27.1813Z" fill="black"/>
<path d="M22.9301 22.8474C22.7588 22.8474 22.5888 22.8911 22.4201 22.9811C22.2538 23.0686 22.0976 23.1999 21.9463 23.3724V20.9211H20.8301V28.5336H21.9463V28.1024C22.0901 28.2749 22.2488 28.4011 22.4176 28.4824C22.5863 28.5649 22.7776 28.6036 22.9951 28.6036C23.3226 28.6036 23.5751 28.4999 23.7451 28.2874C23.9176 28.0749 24.0051 27.7711 24.0051 27.3736V24.2574C24.0051 23.7974 23.9151 23.4474 23.7276 23.2074C23.5463 22.9674 23.2801 22.8474 22.9301 22.8474ZM22.8713 27.2161C22.8713 27.3974 22.8376 27.5249 22.7738 27.6024C22.7101 27.6824 22.6113 27.7211 22.4763 27.7211C22.3826 27.7211 22.2951 27.7011 22.2101 27.6599C22.1251 27.6211 22.0376 27.5511 21.9476 27.4624V23.9636C22.0238 23.8861 22.0988 23.8286 22.1751 23.7924C22.2526 23.7549 22.3288 23.7386 22.4088 23.7386C22.5563 23.7386 22.6726 23.7874 22.7538 23.8849C22.8326 23.9824 22.8713 24.1274 22.8713 24.3161V27.2161Z" fill="black"/>
<path d="M19.8396 15.1988C20.0084 15.1988 20.1409 15.1513 20.2409 15.0588C20.3396 14.9625 20.3896 14.8313 20.3896 14.6675V11.295C20.3896 11.16 20.3396 11.05 20.2371 10.9663C20.1359 10.8838 20.0034 10.8425 19.8396 10.8425C19.6871 10.8425 19.5634 10.8825 19.4696 10.9663C19.3759 11.05 19.3271 11.16 19.3271 11.295V14.665C19.3271 14.8338 19.3734 14.9638 19.4609 15.0588C19.5484 15.1525 19.6734 15.1988 19.8396 15.1988Z" fill="black"/>
<path d="M20 0C8.955 0 0 8.95375 0 20C0 31.0462 8.955 40 20 40C31.045 40 40 31.045 40 20C40 8.955 31.045 0 20 0ZM22.665 9.9275H23.9062V14.67C23.9062 14.8162 23.935 14.9225 23.9862 14.9875C24.0362 15.0538 24.1225 15.0863 24.2388 15.0863C24.3288 15.0863 24.445 15.0425 24.585 14.9563C24.7237 14.87 24.8525 14.7587 24.9675 14.6225V9.9275H26.2113V16.1138H24.9675V15.4313C24.74 15.6825 24.5025 15.8763 24.2525 16.0063C24.005 16.1375 23.765 16.2038 23.53 16.2038C23.2412 16.2038 23.0263 16.1112 22.88 15.9275C22.735 15.7437 22.6625 15.4675 22.6625 15.0975V9.9275H22.665ZM18.0475 11.3425C18.0475 10.8625 18.2138 10.4812 18.55 10.1975C18.8838 9.91375 19.335 9.77125 19.8988 9.77125C20.4125 9.77125 20.835 9.92125 21.1637 10.2213C21.4912 10.52 21.6562 10.9062 21.6562 11.3775V14.5738C21.6562 15.1025 21.495 15.5175 21.1737 15.8187C20.8487 16.12 20.4075 16.27 19.8412 16.27C19.2987 16.27 18.8625 16.115 18.535 15.805C18.21 15.4937 18.0475 15.075 18.0475 14.55V11.3425ZM14.6613 7.7275L15.57 11.0787H15.6575L16.5212 7.7275H17.945L16.3162 12.6338V16.1138H14.9162V12.7913L13.25 7.72875C13.2488 7.7275 14.6613 7.7275 14.6613 7.7275ZM28.545 30.2125C27.6375 31.1175 19.9963 31.1375 19.9963 31.1375C19.9963 31.1375 12.3538 31.1187 11.445 30.2125C10.535 29.3038 10.5338 24.8337 10.5338 24.8C10.5338 24.7738 10.5363 20.295 11.445 19.3875C12.355 18.4813 19.9963 18.47 19.9963 18.4713C19.9963 18.4713 27.6388 18.4825 28.545 19.3888C29.455 20.2975 29.4662 24.775 29.4662 24.8013C29.4662 24.8 29.4587 29.3013 28.545 30.2125Z" fill="black"/>
<path d="M26.2634 22.7776C25.7684 22.7776 25.3659 22.9301 25.0547 23.2376C24.7422 23.5451 24.5859 23.9413 24.5859 24.4288V26.9501C24.5859 27.4926 24.7309 27.9163 25.0134 28.2251C25.2972 28.5351 25.6884 28.6876 26.1809 28.6876C26.7309 28.6876 27.1447 28.5426 27.4197 28.2538C27.6984 27.9601 27.8347 27.5276 27.8347 26.9501V26.6626H26.6997V26.9188C26.6997 27.2501 26.6609 27.4638 26.5884 27.5601C26.5159 27.6576 26.3884 27.7051 26.2047 27.7051C26.0272 27.7051 25.9047 27.6501 25.8297 27.5351C25.7584 27.4201 25.7209 27.2151 25.7209 26.9188V25.8626H27.8322V24.4301C27.8322 23.8976 27.6972 23.4888 27.4272 23.2051C27.1584 22.9201 26.7684 22.7776 26.2634 22.7776ZM26.6997 24.9851H25.7234V24.4188C25.7234 24.1838 25.7609 24.0151 25.8372 23.9163C25.9147 23.8113 26.0409 23.7626 26.2172 23.7626C26.3847 23.7626 26.5097 23.8113 26.5834 23.9163C26.6622 24.0151 26.7009 24.1838 26.7009 24.4188L26.6997 24.9851Z" fill="black"/>
</svg>
